{
	"asset":{
		"generator":"Khronos glTF Blender I/O v3.6.28",
		"version":"2.0"
	},
	"extensionsUsed":[
		"KHR_materials_transmission",
		"KHR_materials_ior"
	],
	"scene":0,
	"scenes":[
		{
			"name":"Scene",
			"nodes":[
				10,
				11,
				12
			]
		}
	],
	"nodes":[
		{
			"mesh":0,
			"name":"Backparts",
			"rotation":[
				-0.079442597925663,
				0,
				0,
				0.9968395233154297
			],
			"scale":[
				1,
				1.3400001525878906,
				1
			],
			"translation":[
				0,
				-0.6452468633651733,
				0.25057101249694824
			]
		},
		{
			"mesh":1,
			"name":"InnerSock"
		},
		{
			"mesh":2,
			"name":"Lasche",
			"translation":[
				0.008989546447992325,
				0,
				0
			]
		},
		{
			"mesh":3,
			"name":"Lasche.001",
			"translation":[
				-0.0027685100212693214,
				0,
				2.158820629119873
			]
		},
		{
			"mesh":4,
			"name":"SideParts",
			"translation":[
				0.008989546447992325,
				0,
				0.002997663104906678
			]
		},
		{
			"mesh":5,
			"name":"Sock"
		},
		{
			"mesh":6,
			"name":"Sole"
		},
		{
			"mesh":7,
			"name":"SoleTrim",
			"scale":[
				1,
				0.9543829560279846,
				1
			]
		},
		{
			"mesh":8,
			"name":"Tread"
		},
		{
			"mesh":9,
			"name":"UpperTrim",
			"scale":[
				1,
				0.9543829560279846,
				1
			]
		},
		{
			"children":[
				0,
				1,
				2,
				3,
				4,
				5,
				6,
				7,
				8,
				9
			],
			"name":"Empty"
		},
		{
			"name":"Controller",
			"rotation":[
				0.12458954006433487,
				-0.361834317445755,
				-0.30078575015068054,
				0.8735452890396118
			],
			"translation":[
				-0.15999996662139893,
				0,
				-0.3499999940395355
			]
		},
		{
			"mesh":10,
			"name":"Plane",
			"scale":[
				33.02758026123047,
				1,
				45.32103729248047
			],
			"translation":[
				0,
				-0.23772381246089935,
				0
			]
		}
	],
	"materials":[
		{
			"doubleSided":true,
			"extensions":{
				"KHR_materials_transmission":{
					"transmissionFactor":0.9227272868156433
				},
				"KHR_materials_ior":{
					"ior":1.4500000476837158
				}
			},
			"name":"DetailGummi.001",
			"pbrMetallicRoughness":{
				"metallicFactor":0,
				"roughnessFactor":0.20454546809196472
			}
		},
		{
			"doubleSided":true,
			"name":"FabricInnen",
			"pbrMetallicRoughness":{
				"baseColorFactor":[
					0.557807981967926,
					0.10321299731731415,
					0,
					1
				],
				"metallicFactor":0,
				"roughnessFactor":0.8772727251052856
			}
		},
		{
			"doubleSided":true,
			"name":"Elastic",
			"normalTexture":{
				"index":0
			},
			"pbrMetallicRoughness":{
				"baseColorTexture":{
					"index":1
				},
				"metallicFactor":0,
				"metallicRoughnessTexture":{
					"index":2
				}
			}
		},
		{
			"doubleSided":true,
			"name":"Elastic.001",
			"normalTexture":{
				"index":3
			},
			"pbrMetallicRoughness":{
				"baseColorTexture":{
					"index":4
				},
				"metallicFactor":0,
				"metallicRoughnessTexture":{
					"index":5
				}
			}
		},
		{
			"doubleSided":true,
			"extensions":{
				"KHR_materials_transmission":{
					"transmissionFactor":0.7636363506317139
				},
				"KHR_materials_ior":{
					"ior":1.4500000476837158
				}
			},
			"name":"DetailKlemme",
			"pbrMetallicRoughness":{
				"baseColorFactor":[
					0.557807981967926,
					0.10321299731731415,
					0,
					1
				],
				"metallicFactor":0,
				"roughnessFactor":0.20454546809196472
			}
		},
		{
			"doubleSided":true,
			"name":"UpperMaterial",
			"pbrMetallicRoughness":{
				"metallicFactor":0
			}
		},
		{
			"doubleSided":true,
			"name":"Cush",
			"pbrMetallicRoughness":{
				"baseColorFactor":[
					0.23532158136367798,
					0.23532158136367798,
					0.23532158136367798,
					1
				],
				"metallicFactor":0,
				"roughnessFactor":0.5
			}
		},
		{
			"doubleSided":true,
			"name":"Detail1",
			"pbrMetallicRoughness":{
				"baseColorFactor":[
					0.022300826385617256,
					0.022300826385617256,
					0.022300826385617256,
					1
				],
				"metallicFactor":0,
				"roughnessFactor":0.800000011920929
			}
		},
		{
			"doubleSided":true,
			"name":"Sole",
			"pbrMetallicRoughness":{
				"baseColorFactor":[
					0.557807981967926,
					0.10321299731731415,
					0,
					1
				],
				"metallicFactor":0,
				"roughnessFactor":0.7409090995788574
			}
		},
		{
			"doubleSided":true,
			"extensions":{
				"KHR_materials_transmission":{
					"transmissionFactor":1
				},
				"KHR_materials_ior":{
					"ior":1.4500000476837158
				}
			},
			"name":"DetailSeitenpanel",
			"pbrMetallicRoughness":{
				"metallicFactor":0,
				"roughnessFactor":0.009999999776482582
			}
		}
	],
	"meshes":[
		{
			"name":"Cube.008",
			"primitives":[
				{
					"attributes":{
						"POSITION":0,
						"NORMAL":1,
						"TEXCOORD_0":2
					},
					"indices":3,
					"material":0
				}
			]
		},
		{
			"name":"Cube.006",
			"primitives":[
				{
					"attributes":{
						"POSITION":4,
						"NORMAL":5,
						"TEXCOORD_0":6
					},
					"indices":7,
					"material":1
				}
			]
		},
		{
			"name":"Cube.009",
			"primitives":[
				{
					"attributes":{
						"POSITION":8,
						"NORMAL":9,
						"TEXCOORD_0":10
					},
					"indices":11,
					"material":2
				}
			]
		},
		{
			"name":"Cube.011",
			"primitives":[
				{
					"attributes":{
						"POSITION":12,
						"NORMAL":13,
						"TEXCOORD_0":14
					},
					"indices":15,
					"material":3
				}
			]
		},
		{
			"name":"Cube.007",
			"primitives":[
				{
					"attributes":{
						"POSITION":16,
						"NORMAL":17,
						"TEXCOORD_0":18
					},
					"indices":19,
					"material":4
				}
			]
		},
		{
			"name":"Cube.001",
			"primitives":[
				{
					"attributes":{
						"POSITION":20,
						"NORMAL":21,
						"TEXCOORD_0":22
					},
					"indices":23,
					"material":5
				}
			]
		},
		{
			"name":"Cube.002",
			"primitives":[
				{
					"attributes":{
						"POSITION":24,
						"NORMAL":25,
						"TEXCOORD_0":26
					},
					"indices":27,
					"material":6
				}
			]
		},
		{
			"name":"Cube.003",
			"primitives":[
				{
					"attributes":{
						"POSITION":28,
						"NORMAL":29,
						"TEXCOORD_0":30
					},
					"indices":31,
					"material":7
				}
			]
		},
		{
			"name":"Cube.005",
			"primitives":[
				{
					"attributes":{
						"POSITION":32,
						"NORMAL":33,
						"TEXCOORD_0":34
					},
					"indices":35,
					"material":8
				}
			]
		},
		{
			"name":"Cube.004",
			"primitives":[
				{
					"attributes":{
						"POSITION":36,
						"NORMAL":37,
						"TEXCOORD_0":38
					},
					"indices":39,
					"material":9
				}
			]
		},
		{
			"name":"Plane",
			"primitives":[
				{
					"attributes":{
						"POSITION":40,
						"NORMAL":41,
						"TEXCOORD_0":42
					},
					"indices":43
				}
			]
		}
	],
	"textures":[
		{
			"sampler":0,
			"source":0
		},
		{
			"sampler":0,
			"source":0
		},
		{
			"sampler":0,
			"source":1
		},
		{
			"sampler":0,
			"source":0
		},
		{
			"sampler":0,
			"source":0
		},
		{
			"sampler":0,
			"source":1
		}
	],
	"images":[
		{
			"bufferView":12,
			"mimeType":"image/png",
			"name":"schrift"
		},
		{
			"bufferView":13,
			"mimeType":"image/png",
			"name":"schrift"
		}
	],
	"accessors":[
		{
			"bufferView":0,
			"componentType":5126,
			"count":6,
			"max":[
				0,
				1.3153504133224487,
				1.8172563314437866
			],
			"min":[
				-0.11635969579219818,
				1.065780520439148,
				1.555219292640686
			],
			"type":"VEC3"
		},
		{
			"bufferView":1,
			"componentType":5126,
			"count":6,
			"type":"VEC3"
		},
		{
			"bufferView":2,
			"componentType":5126,
			"count":6,
			"type":"VEC2"
		},
		{
			"bufferView":3,
			"componentType":5123,
			"count":12,
			"type":"SCALAR"
		},
		{
			"bufferView":4,
			"componentType":5126,
			"count":52,
			"max":[
				0.6539236307144165,
				1.565385341644287,
				1.9711867570877075
			],
			"min":[
				-3.121094716007633e-09,
				0.37807580828666687,
				-1.8939545154571533
			],
			"type":"VEC3"
		},
		{
			"bufferView":5,
			"componentType":5126,
			"count":52,
			"type":"VEC3"
		},
		{
			"bufferView":6,
			"componentType":5126,
			"count":52,
			"type":"VEC2"
		},
		{
			"bufferView":7,
			"componentType":5123,
			"count":228,
			"type":"SCALAR"
		},
		{
			"bufferView":8,
			"componentType":5126,
			"count":39,
			"max":[
				0.8192005157470703,
				1.5977449417114258,
				0.4463502764701843
			],
			"min":[
				-0.8192005157470703,
				0.23406964540481567,
				-0.3546234965324402
			],
			"type":"VEC3"
		},
		{
			"bufferView":9,
			"componentType":5126,
			"count":39,
			"type":"VEC3"
		},
		{
			"bufferView":10,
			"componentType":5126,
			"count":39,
			"type":"VEC2"
		},
		{
			"bufferView":11,
			"componentType":5123,
			"count":144,
			"type":"SCALAR"
		},
		{
			"bufferView":14,
			"componentType":5126,
			"count":39,
			"max":[
				0.092988982796669,
				1.922194004058838,
				-0.3407338261604309
			],
			"min":[
				-0.092988982796669,
				1.020268201828003,
				-0.7573635578155518
			],
			"type":"VEC3"
		},
		{
			"bufferView":15,
			"componentType":5126,
			"count":39,
			"type":"VEC3"
		},
		{
			"bufferView":16,
			"componentType":5126,
			"count":39,
			"type":"VEC2"
		},
		{
			"bufferView":17,
			"componentType":5123,
			"count":144,
			"type":"SCALAR"
		},
		{
			"bufferView":18,
			"componentType":5126,
			"count":8,
			"max":[
				-0.3982991874217987,
				0.6063632369041443,
				0.44222602248191833
			],
			"min":[
				-0.8701819777488708,
				0.3664640486240387,
				-0.0841183215379715
			],
			"type":"VEC3"
		},
		{
			"bufferView":19,
			"componentType":5126,
			"count":8,
			"type":"VEC3"
		},
		{
			"bufferView":20,
			"componentType":5126,
			"count":8,
			"type":"VEC2"
		},
		{
			"bufferView":21,
			"componentType":5123,
			"count":18,
			"type":"SCALAR"
		},
		{
			"bufferView":22,
			"componentType":5126,
			"count":108,
			"max":[
				0.7311471104621887,
				1.8608814477920532,
				2.059232711791992
			],
			"min":[
				-0.7311471104621887,
				0.30646616220474243,
				-1.98814857006073
			],
			"type":"VEC3"
		},
		{
			"bufferView":23,
			"componentType":5126,
			"count":108,
			"type":"VEC3"
		},
		{
			"bufferView":24,
			"componentType":5126,
			"count":108,
			"type":"VEC2"
		},
		{
			"bufferView":25,
			"componentType":5123,
			"count":456,
			"type":"SCALAR"
		},
		{
			"bufferView":26,
			"componentType":5126,
			"count":50,
			"max":[
				0,
				1.0863343477249146,
				2.185171604156494
			],
			"min":[
				-0.8782780170440674,
				-0.0024130716919898987,
				-2.099496364593506
			],
			"type":"VEC3"
		},
		{
			"bufferView":27,
			"componentType":5126,
			"count":50,
			"type":"VEC3"
		},
		{
			"bufferView":28,
			"componentType":5126,
			"count":50,
			"type":"VEC2"
		},
		{
			"bufferView":29,
			"componentType":5123,
			"count":234,
			"type":"SCALAR"
		},
		{
			"bufferView":30,
			"componentType":5126,
			"count":26,
			"max":[
				0,
				1.2329195737838745,
				2.059232711791992
			],
			"min":[
				-0.7311471104621887,
				0.3948414921760559,
				-1.98814857006073
			],
			"type":"VEC3"
		},
		{
			"bufferView":31,
			"componentType":5126,
			"count":26,
			"type":"VEC3"
		},
		{
			"bufferView":32,
			"componentType":5126,
			"count":26,
			"type":"VEC2"
		},
		{
			"bufferView":33,
			"componentType":5123,
			"count":72,
			"type":"SCALAR"
		},
		{
			"bufferView":34,
			"componentType":5126,
			"count":62,
			"max":[
				0,
				0.5523624420166016,
				2.079444646835327
			],
			"min":[
				-0.8998851776123047,
				-0.003462471067905426,
				-2.1621673107147217
			],
			"type":"VEC3"
		},
		{
			"bufferView":35,
			"componentType":5126,
			"count":62,
			"type":"VEC3"
		},
		{
			"bufferView":36,
			"componentType":5126,
			"count":62,
			"type":"VEC2"
		},
		{
			"bufferView":37,
			"componentType":5123,
			"count":84,
			"type":"SCALAR"
		},
		{
			"bufferView":38,
			"componentType":5126,
			"count":14,
			"max":[
				0,
				1.4429129362106323,
				1.8935425281524658
			],
			"min":[
				-0.7436910271644592,
				0.8035038709640503,
				-1.3779226541519165
			],
			"type":"VEC3"
		},
		{
			"bufferView":39,
			"componentType":5126,
			"count":14,
			"type":"VEC3"
		},
		{
			"bufferView":40,
			"componentType":5126,
			"count":14,
			"type":"VEC2"
		},
		{
			"bufferView":41,
			"componentType":5123,
			"count":36,
			"type":"SCALAR"
		},
		{
			"bufferView":42,
			"componentType":5126,
			"count":4,
			"max":[
				1,
				0,
				1
			],
			"min":[
				-1,
				0,
				-1
			],
			"type":"VEC3"
		},
		{
			"bufferView":43,
			"componentType":5126,
			"count":4,
			"type":"VEC3"
		},
		{
			"bufferView":44,
			"componentType":5126,
			"count":4,
			"type":"VEC2"
		},
		{
			"bufferView":45,
			"componentType":5123,
			"count":6,
			"type":"SCALAR"
		}
	],
	"bufferViews":[
		{
			"buffer":0,
			"byteLength":72,
			"byteOffset":0,
			"target":34962
		},
		{
			"buffer":0,
			"byteLength":72,
			"byteOffset":72,
			"target":34962
		},
		{
			"buffer":0,
			"byteLength":48,
			"byteOffset":144,
			"target":34962
		},
		{
			"buffer":0,
			"byteLength":24,
			"byteOffset":192,
			"target":34963
		},
		{
			"buffer":0,
			"byteLength":624,
			"byteOffset":216,
			"target":34962
		},
		{
			"buffer":0,
			"byteLength":624,
			"byteOffset":840,
			"target":34962
		},
		{
			"buffer":0,
			"byteLength":416,
			"byteOffset":1464,
			"target":34962
		},
		{
			"buffer":0,
			"byteLength":456,
			"byteOffset":1880,
			"target":34963
		},
		{
			"buffer":0,
			"byteLength":468,
			"byteOffset":2336,
			"target":34962
		},
		{
			"buffer":0,
			"byteLength":468,
			"byteOffset":2804,
			"target":34962
		},
		{
			"buffer":0,
			"byteLength":312,
			"byteOffset":3272,
			"target":34962
		},
		{
			"buffer":0,
			"byteLength":288,
			"byteOffset":3584,
			"target":34963
		},
		{
			"buffer":0,
			"byteLength":5631,
			"byteOffset":3872
		},
		{
			"buffer":0,
			"byteLength":14262,
			"byteOffset":9504
		},
		{
			"buffer":0,
			"byteLength":468,
			"byteOffset":23768,
			"target":34962
		},
		{
			"buffer":0,
			"byteLength":468,
			"byteOffset":24236,
			"target":34962
		},
		{
			"buffer":0,
			"byteLength":312,
			"byteOffset":24704,
			"target":34962
		},
		{
			"buffer":0,
			"byteLength":288,
			"byteOffset":25016,
			"target":34963
		},
		{
			"buffer":0,
			"byteLength":96,
			"byteOffset":25304,
			"target":34962
		},
		{
			"buffer":0,
			"byteLength":96,
			"byteOffset":25400,
			"target":34962
		},
		{
			"buffer":0,
			"byteLength":64,
			"byteOffset":25496,
			"target":34962
		},
		{
			"buffer":0,
			"byteLength":36,
			"byteOffset":25560,
			"target":34963
		},
		{
			"buffer":0,
			"byteLength":1296,
			"byteOffset":25596,
			"target":34962
		},
		{
			"buffer":0,
			"byteLength":1296,
			"byteOffset":26892,
			"target":34962
		},
		{
			"buffer":0,
			"byteLength":864,
			"byteOffset":28188,
			"target":34962
		},
		{
			"buffer":0,
			"byteLength":912,
			"byteOffset":29052,
			"target":34963
		},
		{
			"buffer":0,
			"byteLength":600,
			"byteOffset":29964,
			"target":34962
		},
		{
			"buffer":0,
			"byteLength":600,
			"byteOffset":30564,
			"target":34962
		},
		{
			"buffer":0,
			"byteLength":400,
			"byteOffset":31164,
			"target":34962
		},
		{
			"buffer":0,
			"byteLength":468,
			"byteOffset":31564,
			"target":34963
		},
		{
			"buffer":0,
			"byteLength":312,
			"byteOffset":32032,
			"target":34962
		},
		{
			"buffer":0,
			"byteLength":312,
			"byteOffset":32344,
			"target":34962
		},
		{
			"buffer":0,
			"byteLength":208,
			"byteOffset":32656,
			"target":34962
		},
		{
			"buffer":0,
			"byteLength":144,
			"byteOffset":32864,
			"target":34963
		},
		{
			"buffer":0,
			"byteLength":744,
			"byteOffset":33008,
			"target":34962
		},
		{
			"buffer":0,
			"byteLength":744,
			"byteOffset":33752,
			"target":34962
		},
		{
			"buffer":0,
			"byteLength":496,
			"byteOffset":34496,
			"target":34962
		},
		{
			"buffer":0,
			"byteLength":168,
			"byteOffset":34992,
			"target":34963
		},
		{
			"buffer":0,
			"byteLength":168,
			"byteOffset":35160,
			"target":34962
		},
		{
			"buffer":0,
			"byteLength":168,
			"byteOffset":35328,
			"target":34962
		},
		{
			"buffer":0,
			"byteLength":112,
			"byteOffset":35496,
			"target":34962
		},
		{
			"buffer":0,
			"byteLength":72,
			"byteOffset":35608,
			"target":34963
		},
		{
			"buffer":0,
			"byteLength":48,
			"byteOffset":35680,
			"target":34962
		},
		{
			"buffer":0,
			"byteLength":48,
			"byteOffset":35728,
			"target":34962
		},
		{
			"buffer":0,
			"byteLength":32,
			"byteOffset":35776,
			"target":34962
		},
		{
			"buffer":0,
			"byteLength":12,
			"byteOffset":35808,
			"target":34963
		}
	],
	"samplers":[
		{
			"magFilter":9729,
			"minFilter":9987
		}
	],
	"buffers":[
		{
			"byteLength":35820,
			"uri":"data:application/octet-stream;base64,"
		}
	]
}
